<?xml version="1.0" standalone="no"?>
<!DOCTYPE svg PUBLIC "-//W3C//DTD SVG 20010904//EN"
 "http://www.w3.org/TR/2001/REC-SVG-20010904/DTD/svg10.dtd">
<svg version="1.0" xmlns="http://www.w3.org/2000/svg"
 width="1280.000000pt" height="1181.000000pt" viewBox="0 0 1280.000000 1181.000000"
 preserveAspectRatio="xMidYMid meet">
<g transform="translate(0.000000,1181.000000) scale(0.100000,-0.100000)"
fill="#000000" stroke="none">
<path d="M6020 11369 c-947 -75 -1827 -397 -2585 -947 -248 -180 -433 -341
-655 -568 -788 -807 -1271 -1820 -1404 -2944 -34 -287 -39 -515 -27 -1204 24
-1312 56 -2216 91 -2526 18 -166 114 -455 229 -695 186 -387 414 -660 726
-870 104 -70 314 -170 450 -214 158 -51 359 -94 405 -86 151 28 296 208 593
735 302 536 400 684 554 831 240 229 440 179 730 -181 47 -58 168 -231 270
-385 102 -154 237 -357 300 -452 138 -209 213 -302 327 -410 270 -256 484
-255 755 2 137 130 179 188 632 882 169 258 258 374 383 498 143 142 212 180
325 180 67 0 83 -4 139 -34 184 -100 335 -304 676 -916 261 -466 401 -662 523
-727 79 -42 98 -43 245 -5 858 223 1406 763 1608 1587 36 145 47 221 59 390
35 471 60 1203 82 2418 16 806 3 1070 -72 1492 -228 1282 -946 2424 -2014
3202 -242 176 -484 321 -765 456 -585 283 -1175 441 -1839 492 -155 12 -587
11 -741 -1z"/>
</g>
</svg>
