<?xml version="1.0" standalone="no"?>
<!DOCTYPE svg PUBLIC "-//W3C//DTD SVG 20010904//EN"
 "http://www.w3.org/TR/2001/REC-SVG-20010904/DTD/svg10.dtd">
<svg version="1.0" xmlns="http://www.w3.org/2000/svg"
 width="1167.000000pt" height="1280.000000pt" viewBox="0 0 1167.000000 1280.000000"
 preserveAspectRatio="xMidYMid meet">
<g transform="translate(0.000000,1280.000000) scale(0.100000,-0.100000)"
fill="#f5c842" stroke="none">
<path d="M6135 10834 c-181 -13 -317 -27 -430 -44 -992 -145 -1908 -628 -2596
-1366 -696 -748 -1106 -1703 -1179 -2744 -70 -1012 250 -2093 865 -2919 528
-710 1284 -1267 2099 -1547 1054 -362 2175 -330 3181 93 373 157 746 380 1065
636 117 94 400 353 400 366 0 5 -688 700 -1530 1544 -841 845 -1530 1541
-1530 1548 0 13 1079 1105 2229 2254 457 456 831 833 831 837 0 4 -64 66 -142
139 -733 678 -1587 1071 -2578 1184 -127 15 -576 27 -685 19z"/>
</g>
</svg>
